<svg width="41" height="40" viewBox="0 0 41 40" fill="none" xmlns="http://www.w3.org/2000/svg">
<circle cx="20.5" cy="20" r="20" fill="black"/>
<mask id="mask0_166_565" style="mask-type:alpha" maskUnits="userSpaceOnUse" x="4" y="4" width="33" height="32">
<rect x="4.5" y="4" width="32" height="32" fill="#D9D9D9"/>
</mask>
<g mask="url(#mask0_166_565)">
<path d="M19.2374 21.2627H12.206C11.8505 21.2627 11.5511 21.1407 11.308 20.8967C11.0649 20.6529 10.9434 20.3527 10.9434 19.996C10.9434 19.6393 11.0649 19.3404 11.308 19.0993C11.5511 18.858 11.8505 18.7373 12.206 18.7373H19.2374V11.706C19.2374 11.3509 19.3594 11.0508 19.6034 10.8057C19.8471 10.5606 20.1474 10.438 20.504 10.438C20.8607 10.438 21.1596 10.5606 21.4007 10.8057C21.642 11.0508 21.7627 11.3509 21.7627 11.706V18.7373H28.794C29.1491 18.7373 29.4492 18.8593 29.6944 19.1033C29.9395 19.3471 30.062 19.6473 30.062 20.004C30.062 20.3607 29.9395 20.6596 29.6944 20.9007C29.4492 21.142 29.1491 21.2627 28.794 21.2627H21.7627V28.294C21.7627 28.6496 21.6407 28.9489 21.3967 29.192C21.1529 29.4351 20.8527 29.5567 20.496 29.5567C20.1394 29.5567 19.8405 29.4351 19.5994 29.192C19.358 28.9489 19.2374 28.6496 19.2374 28.294V21.2627Z" fill="white"/>
</g>
</svg>
